<svg width="36" height="42" viewBox="0 0 36 42" fill="none" xmlns="http://www.w3.org/2000/svg">
<path d="M9.04 9.352C11.056 9.352 12.676 7.732 12.676 5.716C12.676 3.7 11.056 2.08 9.04 2.08C7.024 2.08 5.404 3.7 5.404 5.716C5.404 7.732 7.024 9.352 9.04 9.352ZM5.044 35.056C10.084 35.056 12.28 31.708 12.28 27.244V10.612H5.8V27.244C5.8 28.9 5.08 29.764 3.892 29.764C2.884 29.764 2.452 29.62 1.732 29.08L0.184 33.868C1.588 34.732 2.416 35.056 5.044 35.056Z" fill="#5EB1BF"/>
<path d="M35.484 34L29.112 24.532L35.088 16.612H27.276L23.28 22.804V9.988H16.8V34H23.28V30.076L24.54 28.384L27.528 34H35.484Z" fill="#5EB1BF"/>
</svg>
